<svg xmlns="http://www.w3.org/2000/svg" width="27.336" height="22.282" viewBox="0 0 27.336 22.282">
  <g id="Group_91" data-name="Group 91" transform="translate(-1109.332 -40.859)">
    <g id="Group_53" data-name="Group 53" transform="translate(473.313 -341.11)">
      <path id="Path_49" data-name="Path 49" d="M665.908,397.723H652.995c-2.152-4.511-4.091-9.243-6.131-13.754h-4.845v1.715h3.662c1.938,4.631,3.978,9.14,6.028,13.651h14.2a7.827,7.827,0,0,0,0-1.612Zm-3.121,3.327a2.544,2.544,0,0,0-1.937,2.049,2.587,2.587,0,0,0,1.937,3.112,2.62,2.62,0,0,0,3.121-3.112,2.647,2.647,0,0,0-3.121-2.049Zm-8.5,0a2.836,2.836,0,0,0-2.049,2.049,2.736,2.736,0,0,0,2.049,3.112,2.7,2.7,0,0,0,3.122-3.112,2.648,2.648,0,0,0-3.122-2.049Zm-.325-5.154h12.055l3.336-8.489H650.628l.54,1.724h3.225l.651,1.715h-3.121l.643,1.612H655.8l.642,1.826H653.32Z" transform="translate(-6 -2)" fill="#054e81" fill-rule="evenodd"/>
    </g>
  </g>
</svg>
