<svg xmlns="http://www.w3.org/2000/svg" xmlns:xlink="http://www.w3.org/1999/xlink" width="188" height="188" viewBox="0 0 188 188">
  <defs>
    <clipPath id="clip-path">
      <rect id="Rectangle_184" data-name="Rectangle 184" width="104.337" height="113.069" fill="none"/>
    </clipPath>
  </defs>
  <g id="Group_351" data-name="Group 351" transform="translate(-1364 -1772)">
    <rect id="Rectangle_185" data-name="Rectangle 185" width="188" height="188" transform="translate(1364 1772)" fill="#fff"/>
    <g id="Group_350" data-name="Group 350" transform="translate(1405.999 1809)" clip-path="url(#clip-path)">
      <path id="Path_280" data-name="Path 280" d="M57.487,76.068,35.8,97.1c-11.483,7.605-25.1-6.032-17.514-17.514L60.352,35.8c7.605-11.483-6.032-25.1-17.514-17.514l-15,15.023" transform="translate(-13.073 -13.074)" fill="none" stroke="#000" stroke-linecap="round" stroke-miterlimit="10" stroke-width="6.028"/>
      <path id="Path_281" data-name="Path 281" d="M315.868,209.35l-15,15c-11.483,7.605-25.119-6.032-17.514-17.514L325.4,163.064c7.605-11.483-6.032-25.119-17.514-17.514l-21.673,21.036" transform="translate(-228.484 -116.497)" fill="none" stroke="#000" stroke-linecap="round" stroke-miterlimit="10" stroke-width="6.028"/>
      <path id="Path_282" data-name="Path 282" d="M241.744,261.572a9.272,9.272,0,1,1-9.272-9.272A9.272,9.272,0,0,1,241.744,261.572Z" transform="translate(-181.391 -205.04)" fill="none" stroke="#000" stroke-linecap="round" stroke-miterlimit="10" stroke-width="6.028"/>
    </g>
  </g>
</svg>
